<?xml version="1.0" standalone="no"?>
<!DOCTYPE svg PUBLIC "-//W3C//DTD SVG 20010904//EN"
 "http://www.w3.org/TR/2001/REC-SVG-20010904/DTD/svg10.dtd">
<svg version="1.0" xmlns="http://www.w3.org/2000/svg"
 width="500.000000pt" height="500.000000pt" viewBox="0 0 500.000000 500.000000"
 preserveAspectRatio="xMidYMid meet">

<g transform="translate(0.000000,500.000000) scale(0.100000,-0.100000)"
fill="#000000" stroke="none">
<path d="M2528 4219 c-9 -90 -15 -165 -13 -167 1 -2 59 -6 128 -9 125 -6 125
-6 151 20 34 34 35 85 2 116 l-24 22 24 24 c48 48 21 115 -54 134 -20 5 -73
13 -118 17 l-80 6 -16 -163z m182 88 c29 -15 37 -48 16 -67 -17 -13 -126 -6
-126 9 0 5 3 23 6 40 6 28 10 31 43 31 20 0 47 -6 61 -13z m-40 -127 c49 0 85
-28 76 -58 -9 -28 -35 -35 -101 -27 -52 7 -55 9 -55 35 0 41 10 62 27 56 8 -3
32 -6 53 -6z"/>
<path d="M2020 4233 c-14 -9 -28 -22 -32 -27 -6 -8 -10 -7 -16 1 -11 17 -62 4
-62 -16 0 -10 14 -57 30 -106 17 -49 30 -97 30 -108 0 -16 5 -18 33 -12 17 4
34 9 37 12 2 2 -4 32 -13 67 -23 87 -22 101 13 128 28 22 30 27 21 51 -12 32
-10 31 -41 10z"/>
<path d="M2902 4213 c3 -24 7 -28 30 -25 41 5 98 -26 98 -52 0 -23 0 -23 -59
-7 -94 24 -146 -9 -127 -82 8 -35 76 -71 117 -62 17 4 29 2 29 -3 0 -6 14 -15
30 -21 35 -12 34 -13 65 101 24 92 15 125 -45 156 -28 14 -62 22 -93 22 -47 0
-48 -1 -45 -27z m86 -128 c31 -9 29 -43 -3 -51 -42 -10 -75 3 -75 30 0 35 16
39 78 21z"/>
<path d="M1698 4115 c-75 -51 -74 -162 1 -212 19 -13 47 -23 63 -23 57 0 148
54 148 87 0 8 -9 17 -21 21 -16 6 -28 2 -49 -20 -31 -30 -79 -38 -99 -15 -9
11 6 22 74 53 46 21 84 45 85 53 0 7 -16 29 -36 47 -46 44 -110 47 -166 9z
m103 -35 c35 -19 29 -24 -78 -67 -23 -9 -15 45 9 61 26 19 42 20 69 6z"/>
<path d="M3193 4115 c-66 -28 -92 -118 -53 -182 34 -56 123 -88 171 -63 18 10
18 12 3 35 -13 20 -21 23 -45 18 -39 -7 -79 28 -79 69 0 34 39 78 70 78 22 0
70 -41 70 -60 0 -13 30 -13 50 0 25 15 -14 75 -65 100 -48 23 -78 25 -122 5z"/>
<path d="M2272 4108 c-18 -18 -14 -56 6 -67 43 -23 84 18 61 61 -11 20 -49 24
-67 6z"/>
<path d="M3494 4059 c-16 -22 -38 -53 -50 -67 -11 -15 -43 -59 -72 -99 l-51
-72 26 -21 26 -21 28 31 c15 16 37 30 48 30 18 0 20 -8 23 -66 3 -62 5 -68 36
-92 l32 -25 0 95 0 95 62 7 c34 3 64 9 67 12 3 3 -5 15 -19 26 -22 18 -34 20
-103 14 -64 -5 -77 -4 -70 7 4 7 30 44 57 81 l49 68 -24 19 c-13 10 -27 19
-30 19 -3 0 -18 -18 -35 -41z"/>
<path d="M1449 3967 c-19 -12 -35 -32 -37 -44 -2 -14 -9 -19 -21 -16 -9 2 -27
-4 -39 -14 l-22 -18 43 -56 c23 -31 68 -93 101 -138 l59 -81 28 17 c16 10 29
20 29 23 0 3 -14 23 -30 44 -37 48 -37 56 -4 56 16 0 39 13 60 34 29 29 34 41
34 81 0 26 -7 59 -16 75 -37 61 -123 79 -185 37z m112 -66 c34 -34 37 -59 11
-92 -42 -51 -122 -15 -122 57 0 23 7 38 22 48 33 23 56 20 89 -13z"/>
<path d="M1206 3754 c-39 -27 -66 -75 -66 -117 0 -136 175 -174 251 -55 15 25
19 45 16 83 -4 42 -10 54 -42 82 -49 43 -103 45 -159 7z m122 -70 c29 -32 28
-59 -3 -89 -28 -29 -51 -31 -83 -9 -48 33 -48 104 0 124 31 12 59 3 86 -26z"/>
<path d="M3638 3757 c-35 -29 -48 -58 -48 -104 0 -47 29 -97 72 -123 44 -27
68 -26 68 3 0 14 -12 30 -35 44 -36 24 -52 60 -41 90 6 14 20 4 76 -55 l68
-72 27 32 c24 28 27 38 23 87 -4 47 -10 59 -41 88 -32 29 -44 33 -89 33 -40 0
-59 -6 -80 -23z m136 -50 c13 -9 17 -23 14 -51 l-3 -38 -42 40 c-24 21 -43 44
-43 50 0 16 52 15 74 -1z"/>
<path d="M947 3595 c-17 -23 -16 -24 5 -40 13 -9 77 -55 142 -102 l120 -84 18
23 c22 29 19 37 -24 68 -185 132 -227 160 -234 160 -5 0 -17 -12 -27 -25z"/>
<path d="M3838 3518 l-107 -71 20 -28 20 -29 63 40 c74 47 109 51 132 15 24
-37 7 -66 -63 -111 -32 -20 -59 -38 -61 -39 -2 -2 4 -17 13 -34 10 -21 20 -29
28 -24 159 101 175 120 163 187 -6 34 -54 86 -79 86 -8 0 -8 3 0 11 8 8 7 19
-4 40 -8 16 -15 29 -16 28 -1 0 -50 -32 -109 -71z"/>
<path d="M963 3406 c-72 -32 -98 -145 -48 -205 54 -64 142 -64 199 -1 36 40
57 113 38 132 -21 21 -47 4 -53 -35 -7 -45 -34 -77 -66 -77 -12 0 -23 2 -23 5
0 2 19 40 42 84 27 52 39 84 33 90 -18 18 -89 22 -122 7z m67 -52 c0 -4 -14
-31 -32 -62 -29 -51 -32 -53 -45 -37 -19 28 -16 53 12 80 22 23 65 35 65 19z"/>
<path d="M3993 3255 c-40 -17 -73 -69 -73 -114 0 -32 33 -101 49 -101 4 0 6
-12 4 -27 -6 -48 8 -58 58 -40 47 16 271 108 278 113 2 2 -2 17 -9 34 -14 33
-24 33 -82 4 -38 -20 -46 -18 -40 11 6 34 -15 80 -50 110 -34 29 -84 32 -135
10z m120 -87 c26 -34 17 -68 -23 -92 -38 -22 -74 -15 -96 19 -21 33 -11 70 24
90 38 21 71 15 95 -17z"/>
<path d="M821 3169 c-13 -37 -13 -37 68 -104 56 -46 59 -51 38 -57 -12 -3 -50
-6 -84 -7 -58 -1 -93 -16 -93 -41 0 -5 -2 -14 -5 -22 -5 -11 16 -12 131 -2 74
7 138 14 140 17 3 2 9 18 13 35 9 29 6 34 -32 65 -39 32 -75 64 -138 124 l-27
24 -11 -32z"/>
<path d="M804 2873 c-12 -2 -36 -17 -55 -32 -32 -28 -34 -32 -34 -96 0 -66 1
-68 39 -101 100 -87 232 0 213 140 -7 49 -19 61 -44 45 -17 -10 -19 -20 -15
-61 5 -50 -14 -88 -45 -88 -16 0 -16 12 1 112 12 74 12 77 -8 82 -12 3 -23 5
-26 5 -3 -1 -14 -4 -26 -6z m22 -85 c-3 -13 -8 -40 -11 -60 -6 -41 -20 -48
-41 -20 -19 25 -17 59 6 82 28 28 52 26 46 -2z"/>
<path d="M4195 2809 c-88 -10 -160 -17 -160 -18 -4 -12 17 -185 25 -206 49
-129 225 -144 294 -25 18 29 21 49 18 120 -1 47 -6 99 -10 115 l-7 30 -160
-16z m119 -113 c7 -47 -8 -101 -37 -124 -8 -7 -31 -16 -51 -19 -71 -11 -126
51 -126 144 0 31 1 32 53 36 28 2 75 4 103 5 l52 2 6 -44z"/>
<path d="M710 2558 c-29 -15 -53 -37 -68 -63 -20 -36 -23 -51 -20 -142 2 -56
6 -105 10 -108 4 -4 79 -4 168 0 l161 8 -6 91 c-9 125 -37 185 -97 215 -56 27
-93 27 -148 -1z m137 -75 c30 -27 41 -53 44 -108 l3 -50 -99 -6 c-55 -3 -103
-4 -107 -2 -5 2 -8 31 -8 64 0 54 3 64 29 90 24 23 38 29 74 29 28 0 51 -6 64
-17z"/>
<path d="M4120 2433 c-51 -27 -80 -75 -80 -138 0 -28 6 -59 13 -69 12 -16 16
-17 35 -5 16 10 20 19 15 34 -12 34 -7 74 12 95 27 30 48 26 41 -7 -2 -16 -8
-58 -11 -95 l-7 -68 38 0 c71 0 124 58 124 137 0 90 -101 155 -180 116z m114
-85 c22 -32 20 -55 -9 -84 -29 -28 -44 -25 -39 8 15 108 20 116 48 76z"/>
<path d="M4110 2113 c-57 -7 -106 -15 -107 -17 -2 -2 -8 -17 -13 -34 -8 -29
-5 -34 28 -62 20 -16 68 -55 105 -86 54 -45 71 -54 78 -43 21 33 9 56 -61 112
-80 63 -83 60 51 73 65 6 67 7 77 40 10 34 10 34 -21 33 -18 -1 -79 -8 -137
-16z"/>
<path d="M895 2058 c-44 -17 -111 -42 -150 -56 -38 -14 -72 -26 -73 -28 -9 -7
11 -64 23 -64 7 0 34 9 59 19 l45 20 -2 -38 c-2 -56 40 -116 87 -125 141 -27
226 111 133 213 -14 15 -18 25 -11 28 15 5 -5 64 -21 62 -5 -1 -46 -15 -90
-31z m73 -84 c48 -33 12 -124 -50 -124 -37 0 -68 32 -68 70 0 23 7 35 33 50
39 24 56 25 85 4z"/>
<path d="M3965 1886 c-16 -7 -38 -22 -47 -32 -36 -41 -61 -135 -40 -148 5 -3
18 -2 30 1 17 4 22 13 22 37 0 36 41 86 70 86 11 0 20 -2 20 -5 0 -3 -18 -42
-41 -87 -39 -77 -40 -83 -23 -95 10 -7 37 -13 60 -13 132 0 172 196 51 253
-42 20 -62 21 -102 3z m118 -108 c23 -35 -24 -96 -65 -86 -12 2 -10 12 10 56
24 53 37 60 55 30z"/>
<path d="M1039 1777 c-139 -84 -155 -120 -92 -204 13 -18 31 -33 41 -33 12 0
13 -3 5 -11 -9 -9 -8 -19 3 -41 l15 -28 37 20 c43 24 92 53 145 87 37 23 37
24 22 53 -18 35 -19 35 -53 11 -15 -10 -47 -28 -71 -41 -50 -25 -85 -17 -100
22 -13 34 3 54 74 95 36 21 65 43 65 49 0 6 -8 21 -17 33 l-18 22 -56 -34z"/>
<path d="M3797 1641 l-17 -29 103 -68 c56 -38 113 -75 127 -82 14 -7 33 -21
43 -29 9 -9 18 -14 20 -12 2 2 11 16 20 32 l17 27 -144 95 c-80 52 -146 95
-148 95 -2 0 -11 -13 -21 -29z"/>
<path d="M1227 1504 c-4 -22 0 -28 25 -36 35 -12 62 -60 53 -95 -6 -24 -7 -24
-48 23 -23 26 -54 61 -68 76 l-25 28 -22 -23 c-54 -58 -49 -131 13 -186 48
-41 92 -48 143 -22 47 24 72 64 72 113 0 88 -128 197 -143 122z m3 -137 c27
-31 31 -40 19 -48 -23 -14 -38 -11 -64 16 -25 25 -30 41 -19 69 8 20 22 12 64
-37z"/>
<path d="M3703 1509 c-32 -20 -73 -90 -73 -123 0 -32 40 -96 72 -112 21 -11
46 -15 77 -11 37 4 52 13 83 46 34 36 38 46 38 94 0 51 -3 57 -40 91 -33 30
-48 36 -83 36 -25 0 -55 -9 -74 -21z m107 -65 c39 -34 39 -77 -2 -107 -27 -20
-29 -20 -63 -4 -70 34 -55 132 22 136 6 1 26 -11 43 -25z"/>
<path d="M3477 1407 l-28 -22 35 -42 c20 -22 36 -43 36 -46 0 -3 -15 -8 -34
-11 -53 -10 -86 -56 -86 -117 0 -44 5 -55 38 -90 34 -37 42 -41 85 -41 54 0
89 19 116 63 10 16 20 26 24 23 3 -4 18 3 32 14 l25 20 -49 64 c-28 34 -76 96
-106 136 -31 39 -57 72 -58 72 -1 0 -15 -10 -30 -23z m101 -183 c16 -11 22
-25 22 -51 0 -74 -67 -99 -114 -42 -32 37 -33 62 -4 89 26 24 65 26 96 4z"/>
<path d="M1411 1338 c-6 -17 -4 -26 10 -36 28 -19 23 -42 -21 -92 l-39 -44
-25 23 -24 22 -15 -22 c-15 -21 -14 -23 9 -42 l25 -19 -23 -25 -23 -24 25 -19
c31 -24 33 -24 55 0 14 15 21 17 32 9 10 -9 18 -7 33 6 18 16 19 21 6 33 -12
13 -9 22 30 71 57 72 59 106 9 150 -42 37 -53 38 -64 9z"/>
<path d="M1536 1155 c-56 -93 -60 -132 -17 -175 18 -18 44 -32 69 -36 26 -4
39 -11 36 -18 -5 -14 42 -39 56 -31 11 7 118 191 120 205 0 3 -13 13 -29 23
l-28 16 -26 -47 c-34 -62 -71 -102 -95 -102 -10 0 -29 11 -42 25 -23 25 -23
25 -5 65 10 22 29 55 42 72 28 38 29 54 6 62 -10 3 -23 8 -29 11 -7 4 -32 -26
-58 -70z"/>
<path d="M3224 1123 c-52 -30 -61 -37 -73 -60 -10 -19 -8 -24 9 -33 18 -9 27
-6 56 19 37 33 83 41 102 18 8 -9 -10 -23 -74 -57 -46 -24 -84 -48 -84 -53 0
-5 15 -24 34 -43 29 -29 41 -34 83 -34 65 0 115 33 132 89 34 115 -82 212
-185 154z m106 -175 c-12 -10 -30 -18 -39 -18 -18 0 -60 26 -51 32 3 2 28 15
55 30 l50 27 3 -27 c3 -18 -3 -32 -18 -44z"/>
<path d="M1832 1030 c-38 -23 -52 -54 -52 -114 0 -73 63 -126 149 -126 93 0
153 116 101 198 -37 60 -134 81 -198 42z m137 -71 c42 -76 -56 -150 -109 -82
-23 30 -21 65 8 96 24 27 82 19 101 -14z"/>
<path d="M3039 1039 l-27 -10 24 -76 c22 -69 23 -78 10 -99 -9 -12 -24 -25
-35 -29 -17 -5 -18 -9 -8 -35 14 -37 21 -37 57 -1 21 20 30 25 34 15 4 -10 12
-11 36 -3 16 6 30 12 30 13 0 14 -82 231 -87 233 -5 1 -20 -3 -34 -8z"/>
<path d="M2177 963 c-3 -5 -10 -35 -16 -67 -13 -72 -33 -96 -78 -96 -22 0 -33
-5 -33 -14 0 -8 -3 -21 -6 -30 -5 -13 1 -16 26 -16 17 0 40 4 50 10 15 8 17 6
13 -10 -5 -17 0 -20 30 -20 34 0 37 2 43 38 3 20 14 74 23 119 17 81 17 82 -3
87 -29 8 -44 7 -49 -1z"/>
<path d="M2739 963 c-40 -10 -27 -83 14 -83 29 0 47 18 47 47 0 18 -29 47 -42
42 -2 -1 -10 -3 -19 -6z"/>
<path d="M2446 880 l-7 -61 -75 7 -74 7 0 -30 0 -31 69 -4 c39 -2 73 -7 76
-10 4 -4 4 -25 0 -48 l-7 -42 -83 7 -82 7 -5 -30 -4 -29 89 -7 c151 -10 155
-10 161 22 3 15 8 89 12 165 l6 137 -35 0 -34 0 -7 -60z"/>
</g>
</svg>
